<svg t="1766469776706" class="icon" viewBox="0 0 1024 1024" version="1.1" xmlns="http://www.w3.org/2000/svg" p-id="1216" width="200" height="200"><path d="M653.17 245.81s100.85-25.21 151.86-108.73c8.83-14.46 30.54-11.81 35.32 4.45 14.4 48.97 25.08 130.82-29.1 203.08" fill="#FF717C" p-id="1217"></path><path d="M827.24 356.6l-32-24c21.7-28.93 33.91-62.42 36.31-99.56 1.75-27.08-1.62-55.54-10.03-84.61-54.8 88.74-159.08 115.67-163.5 116.78l-9.7-38.81 4.85 19.4-4.89-19.39c0.93-0.24 93.73-24.53 139.67-99.76 8.31-13.6 23.25-20.76 39.01-18.68 15.63 2.06 28.11 12.76 32.57 27.91 10 34.02 14.02 67.57 11.94 99.74-2.91 45.02-17.79 85.73-44.23 120.98z m-5.07-209.2z" fill="#281305" p-id="1218"></path><path d="M368 245.81S267.15 220.6 216.14 137.08c-8.83-14.46-30.54-11.81-35.32 4.45-14.4 48.97-25.08 130.82 29.1 203.08" fill="#FF717C" p-id="1219"></path><path d="M193.93 356.6c-26.44-35.25-41.32-75.95-44.23-120.98-2.08-32.17 1.94-65.72 11.94-99.74 4.46-15.16 16.93-25.85 32.57-27.91 15.75-2.08 30.7 5.08 39.01 18.68 45.95 75.23 138.74 99.52 139.67 99.76l-9.74 38.8c-4.43-1.11-108.7-28.04-163.5-116.78-8.42 29.12-11.78 57.55-10.03 84.61 2.4 37.13 14.62 70.63 36.31 99.56l-32 24z m5.08-209.2z" fill="#281305" p-id="1220"></path><path d="M511 525m-366 0a366 366 0 1 0 732 0 366 366 0 1 0-732 0Z" fill="#FF717C" p-id="1221"></path><path d="M552.47 862.1c-197.07 0-356.83-159.76-356.83-356.83 0-106.62 46.77-202.32 120.9-267.7-93.44 62.15-155.02 168.39-155.02 289.02 0 191.57 155.3 346.88 346.88 346.88 37.56 0 73.72-5.97 107.6-17.01-20.62 3.7-41.84 5.64-63.53 5.64z" fill="#F95368" p-id="1222"></path><path d="M511 911c-52.1 0-102.65-10.21-150.25-30.34-45.97-19.44-87.25-47.27-122.69-82.71-35.44-35.44-63.27-76.72-82.71-122.69-20.13-47.6-30.34-98.15-30.34-150.25s10.21-102.65 30.34-150.25c19.44-45.97 47.27-87.25 82.71-122.69 35.44-35.44 76.72-63.27 122.69-82.71 47.6-20.13 98.15-30.34 150.25-30.34s102.65 10.21 150.25 30.34c45.97 19.44 87.25 47.27 122.69 82.71 35.44 35.44 63.27 76.72 82.71 122.69 20.13 47.6 30.34 98.15 30.34 150.25s-10.21 102.65-30.34 150.25c-19.44 45.97-47.27 87.25-82.71 122.69-35.44 35.44-76.72 63.27-122.69 82.71C613.65 900.79 563.1 911 511 911z m0-732c-92.42 0-179.31 35.99-244.66 101.34S165 432.58 165 525s35.99 179.31 101.34 244.66S418.58 871 511 871s179.31-35.99 244.66-101.34S857 617.42 857 525s-35.99-179.31-101.34-244.66S603.42 179 511 179z" fill="#281305" p-id="1223"></path><path d="M362.28 412.5a28.72 38.5 0 1 0 57.44 0 28.72 38.5 0 1 0-57.44 0Z" fill="#281305" p-id="1224"></path><path d="M592.28 412.5a28.72 38.5 0 1 0 57.44 0 28.72 38.5 0 1 0-57.44 0Z" fill="#281305" p-id="1225"></path><path d="M439.48 406.55c-2.55 0-5.13-0.49-7.63-1.52l-99.4-41.09c-10.21-4.22-15.06-15.92-10.84-26.12 4.22-10.21 15.91-15.06 26.12-10.84l99.4 41.09c10.21 4.22 15.06 15.92 10.84 26.12-3.19 7.71-10.64 12.36-18.49 12.36zM582.6 406.55c-7.85 0-15.3-4.66-18.49-12.36-4.22-10.21 0.63-21.9 10.84-26.12l99.4-41.09c10.21-4.22 21.9 0.63 26.12 10.84 4.22 10.21-0.63 21.9-10.84 26.12l-99.4 41.09c-2.5 1.03-5.09 1.52-7.63 1.52zM508.92 643.41c-21.18 0-42.18-4.27-62.06-12.74-10.16-4.33-14.89-16.08-10.56-26.24s16.08-14.89 26.24-10.56c23.47 10 49.05 12.18 73.96 6.3 24.92-5.88 46.82-19.25 63.35-38.68 7.16-8.41 19.78-9.43 28.19-2.27s9.43 19.78 2.27 28.19c-22.1 25.97-51.36 43.85-84.64 51.7-12.19 2.88-24.51 4.31-36.76 4.31z" fill="#281305" p-id="1226"></path><path d="M650.08 591.22c-1.25 0-2.52-0.12-3.8-0.36-31.23-6.01-46.95-31.35-51.31-45.38l38.2-11.88-0.09-0.27c0.21 0.62 5.43 15.3 20.76 18.25 10.85 2.09 17.95 12.57 15.86 23.42-1.84 9.57-10.22 16.22-19.62 16.22z" fill="#281305" p-id="1227"></path></svg>